<?xml version="1.0" encoding="UTF-8" standalone="no"?><svg xmlns="http://www.w3.org/2000/svg" xmlns:xlink="http://www.w3.org/1999/xlink" contentStyleType="text/css" height="717px" preserveAspectRatio="none" style="width:818px;height:717px;background:#F0FFFF;" version="1.1" viewBox="0 0 818 717" width="818px" zoomAndPan="magnify"><defs/><g><rect fill="#00BFFF" height="705.8263" style="stroke:#181818;stroke-width:0.5;" width="549.5" x="131" y="6"/><text fill="#000000" font-family="&quot;Helvetica&quot;" font-size="13" font-weight="bold" lengthAdjust="spacing" textLength="104" x="353.75" y="19.897">journald-broker</text><rect fill="#FFFFFF" height="442.8842" style="stroke:#181818;stroke-width:1.0;" width="10" x="181.5" y="224.2361"/><rect fill="#FFFFFF" height="250.3541" style="stroke:#181818;stroke-width:1.0;" width="10" x="186.5" y="306.6481"/><rect fill="#FFFFFF" height="527.2963" style="stroke:#181818;stroke-width:1.0;" width="10" x="398.5" y="139.8241"/><rect fill="#FFFFFF" height="31.706" style="stroke:#181818;stroke-width:1.0;" width="10" x="403.5" y="338.3541"/><rect fill="#FFFFFF" height="487.5902" style="stroke:#181818;stroke-width:1.0;" width="10" x="616.5" y="179.5301"/><rect fill="#FFFFFF" height="31.706" style="stroke:#181818;stroke-width:1.0;" width="10" x="621.5" y="503.2963"/><rect fill="#FFFFFF" height="31.706" style="stroke:#181818;stroke-width:1.0;" width="10" x="750.5" y="626.4143"/><rect fill="none" height="164.9421" style="stroke:#000000;stroke-width:1.5;" width="581.5" x="115" y="385.0602"/><rect fill="none" height="128.5301" style="stroke:#000000;stroke-width:1.5;" width="561.5" x="125" y="414.4722"/><line style="stroke:#181818;stroke-width:0.5;stroke-dasharray:5.0,5.0;" x1="60" x2="60" y1="60.412" y2="676.1203"/><line style="stroke:#181818;stroke-width:0.5;stroke-dasharray:5.0,5.0;" x1="186" x2="186" y1="60.412" y2="676.1203"/><line style="stroke:#181818;stroke-width:0.5;stroke-dasharray:5.0,5.0;" x1="403.5" x2="403.5" y1="60.412" y2="676.1203"/><line style="stroke:#181818;stroke-width:0.5;stroke-dasharray:5.0,5.0;" x1="512.5" x2="512.5" y1="468.2372" y2="676.1203"/><line style="stroke:#181818;stroke-width:0.5;stroke-dasharray:5.0,5.0;" x1="621.5" x2="621.5" y1="60.412" y2="676.1203"/><line style="stroke:#181818;stroke-width:0.5;stroke-dasharray:5.0,5.0;" x1="755" x2="755" y1="60.412" y2="676.1203"/><rect fill="#E2E2F0" height="31.706" rx="2.5" ry="2.5" style="stroke:#181818;stroke-width:0.5;" width="70" x="25" y="27.706"/><text fill="#000000" font-family="&quot;Helvetica&quot;" font-size="13" font-weight="bold" lengthAdjust="spacing" textLength="56" x="32" y="48.603">Journald</text><rect fill="#E2E2F0" height="31.706" rx="2.5" ry="2.5" style="stroke:#181818;stroke-width:0.5;" width="70" x="25" y="675.1203"/><text fill="#000000" font-family="&quot;Helvetica&quot;" font-size="13" font-weight="bold" lengthAdjust="spacing" textLength="56" x="32" y="696.0173">Journald</text><rect fill="#E2E2F0" height="31.706" rx="2.5" ry="2.5" style="stroke:#181818;stroke-width:0.5;" width="63" x="155" y="27.706"/><text fill="#000000" font-family="&quot;Helvetica&quot;" font-size="13" lengthAdjust="spacing" textLength="49" x="162" y="48.603">Monitor</text><rect fill="#E2E2F0" height="31.706" rx="2.5" ry="2.5" style="stroke:#181818;stroke-width:0.5;" width="63" x="155" y="675.1203"/><text fill="#000000" font-family="&quot;Helvetica&quot;" font-size="13" lengthAdjust="spacing" textLength="49" x="162" y="696.0173">Monitor</text><rect fill="#E2E2F0" height="31.706" rx="2.5" ry="2.5" style="stroke:#181818;stroke-width:0.5;" width="48" x="379.5" y="27.706"/><text fill="#000000" font-family="&quot;Helvetica&quot;" font-size="13" lengthAdjust="spacing" textLength="34" x="386.5" y="48.603">Event</text><rect fill="#E2E2F0" height="31.706" rx="2.5" ry="2.5" style="stroke:#181818;stroke-width:0.5;" width="48" x="379.5" y="675.1203"/><text fill="#000000" font-family="&quot;Helvetica&quot;" font-size="13" lengthAdjust="spacing" textLength="34" x="386.5" y="696.0173">Event</text><rect fill="#E2E2F0" height="31.706" rx="2.5" ry="2.5" style="stroke:#181818;stroke-width:0.5;" width="48" x="488.5" y="675.1203"/><text fill="#000000" font-family="&quot;Helvetica&quot;" font-size="13" lengthAdjust="spacing" textLength="34" x="495.5" y="696.0173">Script</text><rect fill="#E2E2F0" height="31.706" rx="2.5" ry="2.5" style="stroke:#181818;stroke-width:0.5;" width="70" x="586.5" y="27.706"/><text fill="#000000" font-family="&quot;Helvetica&quot;" font-size="13" lengthAdjust="spacing" textLength="56" x="593.5" y="48.603">Launcher</text><rect fill="#E2E2F0" height="31.706" rx="2.5" ry="2.5" style="stroke:#181818;stroke-width:0.5;" width="70" x="586.5" y="675.1203"/><text fill="#000000" font-family="&quot;Helvetica&quot;" font-size="13" lengthAdjust="spacing" textLength="56" x="593.5" y="696.0173">Launcher</text><rect fill="#E2E2F0" height="31.706" rx="2.5" ry="2.5" style="stroke:#181818;stroke-width:0.5;" width="61" x="725" y="27.706"/><text fill="#000000" font-family="&quot;Helvetica&quot;" font-size="13" font-weight="bold" lengthAdjust="spacing" textLength="47" x="732" y="48.603">System</text><rect fill="#E2E2F0" height="31.706" rx="2.5" ry="2.5" style="stroke:#181818;stroke-width:0.5;" width="61" x="725" y="675.1203"/><text fill="#000000" font-family="&quot;Helvetica&quot;" font-size="13" font-weight="bold" lengthAdjust="spacing" textLength="47" x="732" y="696.0173">System</text><rect fill="#FFFFFF" height="442.8842" style="stroke:#181818;stroke-width:1.0;" width="10" x="181.5" y="224.2361"/><rect fill="#FFFFFF" height="250.3541" style="stroke:#181818;stroke-width:1.0;" width="10" x="186.5" y="306.6481"/><rect fill="#FFFFFF" height="527.2963" style="stroke:#181818;stroke-width:1.0;" width="10" x="398.5" y="139.8241"/><rect fill="#FFFFFF" height="31.706" style="stroke:#181818;stroke-width:1.0;" width="10" x="403.5" y="338.3541"/><rect fill="#FFFFFF" height="487.5902" style="stroke:#181818;stroke-width:1.0;" width="10" x="616.5" y="179.5301"/><rect fill="#FFFFFF" height="31.706" style="stroke:#181818;stroke-width:1.0;" width="10" x="621.5" y="503.2963"/><rect fill="#FFFFFF" height="31.706" style="stroke:#181818;stroke-width:1.0;" width="10" x="750.5" y="626.4143"/><rect fill="#EEEEEE" height="3" style="stroke:#EEEEEE;stroke-width:1.0;" width="811" x="0" y="92.265"/><line style="stroke:#000000;stroke-width:1.0;" x1="0" x2="811" y1="92.265" y2="92.265"/><line style="stroke:#000000;stroke-width:1.0;" x1="0" x2="811" y1="95.265" y2="95.265"/><rect fill="#EEEEEE" height="25.706" style="stroke:#000000;stroke-width:2.0;" width="102" x="354.5" y="80.412"/><text fill="#000000" font-family="&quot;Helvetica&quot;" font-size="13" font-weight="bold" lengthAdjust="spacing" textLength="85" x="360.5" y="98.309">Initialization</text><polygon fill="#181818" points="386.5,135.8241,396.5,139.8241,386.5,143.8241,390.5,139.8241" style="stroke:#181818;stroke-width:1.0;"/><line style="stroke:#181818;stroke-width:1.0;" x1="186.5" x2="392.5" y1="139.8241" y2="139.8241"/><text fill="#000000" font-family="&quot;Helvetica&quot;" font-size="13" font-weight="bold" lengthAdjust="spacing" textLength="7" x="193.5" y="134.0151">1</text><text fill="#000000" font-family="&quot;Helvetica&quot;" font-size="13" lengthAdjust="spacing" textLength="147" x="204.5" y="134.0151">load user-defined events</text><line style="stroke:#181818;stroke-width:1.0;" x1="621.5" x2="668.5" y1="166.5301" y2="166.5301"/><line style="stroke:#181818;stroke-width:1.0;" x1="668.5" x2="668.5" y1="166.5301" y2="179.5301"/><line style="stroke:#181818;stroke-width:1.0;" x1="627.5" x2="668.5" y1="179.5301" y2="179.5301"/><line style="stroke:#181818;stroke-width:1.0;" x1="627.5" x2="637.5" y1="179.5301" y2="175.5301"/><line style="stroke:#181818;stroke-width:1.0;" x1="627.5" x2="637.5" y1="179.5301" y2="183.5301"/><text fill="#000000" font-family="&quot;Helvetica&quot;" font-size="13" font-weight="bold" lengthAdjust="spacing" textLength="7" x="633.5" y="160.7211">2</text><text fill="#000000" font-family="&quot;Helvetica&quot;" font-size="13" lengthAdjust="spacing" textLength="109" x="644.5" y="160.7211">wait for new script</text><line style="stroke:#181818;stroke-width:1.0;" x1="186.5" x2="233.5" y1="211.2361" y2="211.2361"/><line style="stroke:#181818;stroke-width:1.0;" x1="233.5" x2="233.5" y1="211.2361" y2="224.2361"/><line style="stroke:#181818;stroke-width:1.0;" x1="192.5" x2="233.5" y1="224.2361" y2="224.2361"/><line style="stroke:#181818;stroke-width:1.0;" x1="192.5" x2="202.5" y1="224.2361" y2="220.2361"/><line style="stroke:#181818;stroke-width:1.0;" x1="192.5" x2="202.5" y1="224.2361" y2="228.2361"/><text fill="#000000" font-family="&quot;Helvetica&quot;" font-size="13" font-weight="bold" lengthAdjust="spacing" textLength="7" x="198.5" y="205.4271">3</text><text fill="#000000" font-family="&quot;Helvetica&quot;" font-size="13" lengthAdjust="spacing" textLength="141" x="209.5" y="205.4271">watch for new log entry</text><rect fill="#EEEEEE" height="3" style="stroke:#EEEEEE;stroke-width:1.0;" width="811" x="0" y="259.0891"/><line style="stroke:#000000;stroke-width:1.0;" x1="0" x2="811" y1="259.0891" y2="259.0891"/><line style="stroke:#000000;stroke-width:1.0;" x1="0" x2="811" y1="262.0891" y2="262.0891"/><rect fill="#EEEEEE" height="25.706" style="stroke:#000000;stroke-width:2.0;" width="158" x="326.5" y="247.2361"/><text fill="#000000" font-family="&quot;Helvetica&quot;" font-size="13" font-weight="bold" lengthAdjust="spacing" textLength="141" x="332.5" y="265.1331">New Log Entry Arrival</text><line style="stroke:#181818;stroke-width:1.0;" x1="184.5" x2="174.5" y1="306.6481" y2="302.6481"/><line style="stroke:#181818;stroke-width:1.0;" x1="184.5" x2="174.5" y1="306.6481" y2="310.6481"/><line style="stroke:#181818;stroke-width:1.0;" x1="60" x2="185.5" y1="306.6481" y2="306.6481"/><text fill="#000000" font-family="&quot;Helvetica&quot;" font-size="13" font-weight="bold" lengthAdjust="spacing" textLength="7" x="67" y="300.8391">4</text><text fill="#000000" font-family="&quot;Helvetica&quot;" font-size="13" lengthAdjust="spacing" textLength="82" x="78" y="300.8391">new log entry</text><polygon fill="#181818" points="391.5,334.3541,401.5,338.3541,391.5,342.3541,395.5,338.3541" style="stroke:#181818;stroke-width:1.0;"/><line style="stroke:#181818;stroke-width:1.0;" x1="196.5" x2="397.5" y1="338.3541" y2="338.3541"/><text fill="#000000" font-family="&quot;Helvetica&quot;" font-size="13" font-weight="bold" lengthAdjust="spacing" textLength="7" x="203.5" y="332.5451">5</text><text fill="#000000" font-family="&quot;Helvetica&quot;" font-size="13" lengthAdjust="spacing" textLength="167" x="214.5" y="332.5451">match log entry with events</text><polygon fill="#181818" points="207.5,366.0602,197.5,370.0602,207.5,374.0602,203.5,370.0602" style="stroke:#181818;stroke-width:1.0;"/><line style="stroke:#181818;stroke-width:1.0;stroke-dasharray:2.0,2.0;" x1="201.5" x2="397.5" y1="370.0602" y2="370.0602"/><text fill="#000000" font-family="&quot;Helvetica&quot;" font-size="13" font-weight="bold" lengthAdjust="spacing" textLength="7" x="213.5" y="364.2512">6</text><text fill="#000000" font-family="&quot;Helvetica&quot;" font-size="13" lengthAdjust="spacing" textLength="96" x="224.5" y="364.2512">matched events</text><path d="M115,385.0602 L188,385.0602 L188,394.7662 L178,404.7662 L115,404.7662 L115,385.0602 " fill="#EEEEEE" style="stroke:#000000;stroke-width:1.5;"/><rect fill="none" height="164.9421" style="stroke:#000000;stroke-width:1.5;" width="581.5" x="115" y="385.0602"/><text fill="#000000" font-family="&quot;Helvetica&quot;" font-size="13" font-weight="bold" lengthAdjust="spacing" textLength="28" x="130" y="399.9572">loop</text><text fill="#000000" font-family="&quot;Helvetica&quot;" font-size="13" font-weight="bold" lengthAdjust="spacing" textLength="216" x="203" y="400.9572">[respond to each matched event]</text><path d="M125,414.4722 L188,414.4722 L188,424.1782 L178,434.1782 L125,434.1782 L125,414.4722 " fill="#EEEEEE" style="stroke:#000000;stroke-width:1.5;"/><rect fill="none" height="128.5301" style="stroke:#000000;stroke-width:1.5;" width="561.5" x="125" y="414.4722"/><text fill="#000000" font-family="&quot;Helvetica&quot;" font-size="13" font-weight="bold" lengthAdjust="spacing" textLength="18" x="140" y="429.3692">alt</text><text fill="#000000" font-family="&quot;Helvetica&quot;" font-size="13" font-weight="bold" lengthAdjust="spacing" textLength="183" x="203" y="430.3692">[event is not in watch delay]</text><polygon fill="#181818" points="476.5,456.5902,486.5,460.5902,476.5,464.5902,480.5,460.5902" style="stroke:#181818;stroke-width:1.0;"/><line style="stroke:#181818;stroke-width:1.0;" x1="196.5" x2="482.5" y1="460.5902" y2="460.5902"/><text fill="#000000" font-family="&quot;Helvetica&quot;" font-size="13" font-weight="bold" lengthAdjust="spacing" textLength="7" x="203.5" y="454.7812">7</text><text fill="#000000" font-family="&quot;Helvetica&quot;" font-size="13" lengthAdjust="spacing" textLength="237" x="214.5" y="454.7812">create a script related to matched event</text><rect fill="#E2E2F0" height="31.706" rx="2.5" ry="2.5" style="stroke:#181818;stroke-width:0.5;" width="48" x="488.5" y="436.8842"/><text fill="#000000" font-family="&quot;Helvetica&quot;" font-size="13" lengthAdjust="spacing" textLength="34" x="495.5" y="457.7812">Script</text><polygon fill="#181818" points="609.5,499.2963,619.5,503.2963,609.5,507.2963,613.5,503.2963" style="stroke:#181818;stroke-width:1.0;"/><line style="stroke:#181818;stroke-width:1.0;" x1="196.5" x2="615.5" y1="503.2963" y2="503.2963"/><text fill="#000000" font-family="&quot;Helvetica&quot;" font-size="13" font-weight="bold" lengthAdjust="spacing" textLength="7" x="203.5" y="497.4873">8</text><text fill="#000000" font-family="&quot;Helvetica&quot;" font-size="13" lengthAdjust="spacing" textLength="122" x="214.5" y="497.4873">send script to queue</text><polygon fill="#181818" points="207.5,531.0023,197.5,535.0023,207.5,539.0023,203.5,535.0023" style="stroke:#181818;stroke-width:1.0;"/><line style="stroke:#181818;stroke-width:1.0;stroke-dasharray:2.0,2.0;" x1="201.5" x2="615.5" y1="535.0023" y2="535.0023"/><text fill="#000000" font-family="&quot;Helvetica&quot;" font-size="13" font-weight="bold" lengthAdjust="spacing" textLength="7" x="213.5" y="529.1933">9</text><text fill="#000000" font-family="&quot;Helvetica&quot;" font-size="13" lengthAdjust="spacing" textLength="15" x="224.5" y="529.1933">ok</text><rect fill="#EEEEEE" height="3" style="stroke:#EEEEEE;stroke-width:1.0;" width="811" x="0" y="578.8553"/><line style="stroke:#000000;stroke-width:1.0;" x1="0" x2="811" y1="578.8553" y2="578.8553"/><line style="stroke:#000000;stroke-width:1.0;" x1="0" x2="811" y1="581.8553" y2="581.8553"/><rect fill="#EEEEEE" height="25.706" style="stroke:#000000;stroke-width:2.0;" width="158" x="326.5" y="567.0023"/><text fill="#000000" font-family="&quot;Helvetica&quot;" font-size="13" font-weight="bold" lengthAdjust="spacing" textLength="141" x="332.5" y="584.8993">Execute Script Queue</text><line style="stroke:#181818;stroke-width:1.0;" x1="748.5" x2="738.5" y1="626.4143" y2="622.4143"/><line style="stroke:#181818;stroke-width:1.0;" x1="748.5" x2="738.5" y1="626.4143" y2="630.4143"/><line style="stroke:#181818;stroke-width:1.0;" x1="626.5" x2="749.5" y1="626.4143" y2="626.4143"/><text fill="#000000" font-family="&quot;Helvetica&quot;" font-size="13" font-weight="bold" lengthAdjust="spacing" textLength="14" x="633.5" y="620.6053">10</text><text fill="#000000" font-family="&quot;Helvetica&quot;" font-size="13" lengthAdjust="spacing" textLength="83" x="651.5" y="620.6053">execute script</text><line style="stroke:#181818;stroke-width:1.0;" x1="627.5" x2="637.5" y1="658.1203" y2="654.1203"/><line style="stroke:#181818;stroke-width:1.0;" x1="627.5" x2="637.5" y1="658.1203" y2="662.1203"/><line style="stroke:#181818;stroke-width:1.0;stroke-dasharray:2.0,2.0;" x1="626.5" x2="754.5" y1="658.1203" y2="658.1203"/><text fill="#000000" font-family="&quot;Helvetica&quot;" font-size="13" font-weight="bold" lengthAdjust="spacing" textLength="14" x="643.5" y="652.3113">11</text><text fill="#000000" font-family="&quot;Helvetica&quot;" font-size="13" lengthAdjust="spacing" textLength="31" x="661.5" y="652.3113">done</text></g></svg>